PathFileType	4	(X/Y/Z)	C:/Users/beibeiliu/ov580/test_trc/User3\sequence.15_training_dense_right.trc
DataRate	CameraRate	NumFrames	NumMarkers	Units	OrigDataRate	OrigDataStartFrame	OrigNumFrames
120	120	20	19	mm	120	88	234
Frame#	Time	ThumbCMC			ThumbMCP			ThumbIP			ThumbTip			IndexMCP			IndexPIP			IndexTip			MiddleMCP			MiddlePIP			MiddleTip			RingMCP			RingPIP			RingTip			PinkyMCP			PinkyPIP			PinkyTip			BackHand1			BackHand2			BackHand3	
		X0	Y0	Z0	X1	Y1	Z1	X2	Y2	Z2	X3	Y3	Z3	X4	Y4	Z4	X5	Y5	Z5	X6	Y6	Z6	X7	Y7	Z7	X8	Y8	Z8	X9	Y9	Z9	X10	Y10	Z10	X11	Y11	Z11	X12	Y12	Z12	X13	Y13	Z13	X14	Y14	Z14	X15	Y15	Z15	X16	Y16	Z16	X17	Y17	Z17	X18	Y18	Z18	
87	0.725	205.692	-3.58492	7.70725	195.035	12.6154	-22.9367	186.237	24.8772	-49.8067	168.734	25.1643	-69.1074	191.902	-22.925	-67.6124	179.253	-3.41968	-85.497	163.948	23.914	-84.2976	182.471	-44.9445	-70.2214	176.392	-37.5086	-95.5308	161.527	-26.8592	-121.922	164.781	-54.4226	-57.7112	155.615	-54.854	-81.6718	147.645	-49.5111	-105.574	140.671	-57.2666	-36.0235	129.814	-57.6774	-54.9079	113.834	-58.712	-74.19	177.607	-60.8506	-4.04675	180.421	-59.4204	22.7833	205.262	-42.7731	4.60478	
88	0.733333	205.901	-4.0064	9.40805	196.91	12.2329	-22.0271	187.947	17.505	-48.4678	171.896	15.0661	-69.4047	200.059	-29.5806	-65.085	184.652	-10.7048	-88.8966	168.43	16.1458	-86.7004	189.549	-53.4225	-67.9098	186.102	-48.298	-93.3546	177.051	-36.8999	-124.694	175.749	-58.6241	-58.6642	168.691	-61.2679	-83.6962	157.749	-60.9611	-109.473	151.975	-63.0847	-37.3857	138.004	-67.6774	-57.8382	126.42	-69.7548	-79.584	184.206	-61.05	-6.87233	185.913	-60.7337	22.6964	210.672	-43.7349	5.17888	
89	0.741667	205.441	-7.07331	4.10955	194.785	6.77529	-22.821	188.67	13.2801	-53.0141	174.247	9.4065	-70.2689	207.712	-33.2724	-64.2433	196.99	-17.5228	-88.3294	170.446	4.2248	-90.7206	198.963	-57.4724	-64.3019	198.23	-53.5991	-95.2822	188.876	-43.8807	-126.139	184.069	-65.5242	-57.4055	177.723	-70.1387	-79.5786	173.999	-68.7353	-106.524	156.955	-71.9595	-37.9822	150.665	-75.7877	-56.5496	140.078	-81.9341	-75.9533	187.214	-66.2205	-1.45867	185.965	-64.4082	24.9865	215.503	-44.7602	4.77833	
90	0.75	204.135	-5.816	5.26487	193.188	4.29334	-27.5309	185.941	7.58929	-57.5545	171.636	3.76029	-77.0652	213.309	-35.178	-66.0602	196.504	-25.2025	-88.5031	175.471	-2.85353	-91.9624	205.884	-61.7185	-61.5598	206.038	-58.7201	-93.2162	197.257	-53.3816	-122.621	188.554	-72.3492	-53.2054	187.154	-76.2527	-82.5724	181.158	-77.9477	-108.478	165.153	-76.909	-37.0064	155.679	-86.2019	-56.8453	150.134	-90.1865	-75.9493	193.971	-67.6347	-4.38514	192.137	-62.313	29.3954	218.445	-44.1525	6.33748	
91	0.758333	198.961	-9.2011	4.09626	187.418	1.60038	-29.5777	176.815	3.33724	-52.9467	165.376	-1.65516	-76.5471	210.657	-37.4221	-65.1591	193.593	-23.1574	-90.5701	169.509	-7.13882	-91.5701	210.731	-62.1504	-63.0303	209.626	-61.5752	-96.3253	199.348	-56.3771	-124.774	196.827	-74.5472	-54.176	194.081	-82.9331	-81.6268	190.459	-81.7061	-105.277	170.454	-84.9073	-35.1668	166.212	-93.3548	-58.2551	161.183	-99.6728	-75.7887	198.089	-70.4437	-3.80277	194.278	-66.0759	28.4673	217.201	-41.3872	9.00542	
92	0.766667	193.633	-7.44104	1.62845	177.749	-3.52432	-26.5012	168.052	2.50538	-54.039	156.871	-10.2871	-73.2994	208.566	-31.5762	-65.4603	188.197	-22.3024	-90.5274	160.945	-12.4275	-91.0956	213.531	-59.4144	-62.9455	211.552	-57.4144	-94.9427	198.056	-58.6763	-121.652	201.656	-72.7862	-53.4694	201.431	-81.4276	-76.3514	193.637	-84.7273	-108.532	179.892	-89.5297	-37.3763	177.852	-96.073	-53.4347	173.225	-105.664	-77.2263	201.479	-69.7603	-1.88199	197.172	-66.771	30.0148	214.675	-38.0388	8.1878	
93	0.775	187.53	-6.42236	3.23438	169.637	0.0754959	-25.1934	160.771	-0.364134	-56.2463	148.388	-8.74762	-75.6331	203.966	-28.1621	-64.4943	184.312	-20.1285	-88.2221	152.34	-17.0734	-89.9916	213.79	-52.1932	-61.4023	208.869	-56.5021	-95.9006	195.229	-52.4799	-124.31	204.085	-70.9492	-53.7722	204.49	-77.2434	-76.7669	199.913	-78.5913	-102.938	185.596	-87.4985	-35.5419	184.721	-99.3108	-53.5043	181.356	-107.614	-76.4494	203.922	-68.9468	-2.82325	200.34	-59.9035	30.4892	215.903	-34.553	5.65872	
94	0.783333	178.119	-4.88183	7.35559	160.369	0.395244	-21.5346	149.903	0.82824	-53.9001	140.561	-14.7695	-74.0432	196.386	-25.3545	-65.0599	173.332	-21.2329	-87.933	145.867	-16.569	-90.0096	211.724	-46.6987	-63.7636	206.408	-48.2867	-95.7835	192.004	-48.7029	-124.995	206.827	-67.4704	-53.5759	206.465	-74.0317	-77.1571	201.657	-78.8321	-103.595	190.701	-81.4654	-34.0822	192.739	-93.5829	-54.8451	191.146	-105.504	-78.9205	205.145	-62.7843	-2.39869	202.611	-59.4409	25.3796	212.017	-25.5304	9.52817	
95	0.791667	168.556	-1.12256	6.66135	149.606	1.38052	-20.153	138.237	-1.24652	-52.386	132.591	-15.4015	-68.6229	189.498	-14.9148	-62.3219	165.368	-18.2585	-85.7542	137.098	-20.6679	-86.8586	207.166	-40.0429	-61.6298	202.865	-37.9071	-93.6496	189.587	-42.4489	-122.252	206.198	-56.8561	-51.9766	207.438	-63.047	-77.5731	202.882	-69.3854	-104.45	196.524	-76.9863	-36.0903	198.062	-89.7563	-57.2763	197.161	-98.8783	-76.648	208.571	-52.1814	-1.77573	205.533	-52.0789	26.727	206.013	-21.5836	6.16038	
96	0.8	158.966	1.03306	9.69344	142.532	-3.50196	-18.5499	129.317	-3.18026	-43.6246	122.676	-14.2464	-66.008	178.808	-6.26418	-60.762	156.74	-9.70273	-81.5797	130.972	-25.5706	-84.0625	200.676	-25.1447	-65.4164	197.13	-29.3162	-92.6538	184.724	-29.5314	-119.501	203.868	-49.7683	-50.8395	206.025	-53.2708	-81.2019	202.027	-54.3753	-106.996	199.351	-73.2176	-33.3714	201.683	-77.8071	-58.4682	205.521	-89.4725	-74.6677	205.32	-42.2534	0.270451	204.15	-41.6809	26.7295	197.871	-11.6446	12.2406	
97	0.808333	147.93	-0.616076	14.4053	133.942	-5.05218	-12.0856	117.746	-2.7642	-38.1373	115.243	-14.9495	-61.5467	170.285	-2.11643	-56.8079	146.964	-9.06499	-77.7063	122.714	-26.7623	-78.3184	193.59	-13.3122	-62.2917	188.436	-13.3538	-88.5686	176.756	-18.6476	-119.656	202.04	-37.735	-53.0681	205.257	-41.8755	-75.7873	202.745	-45.5859	-103.541	200	-60.4943	-34.6197	206.444	-71.8546	-57.3589	211.763	-79.3978	-77.8497	203.21	-36.1723	-0.717619	203.039	-35.63	28.0778	188.824	-5.00685	13.0805	
98	0.816667	138.228	-5.55322	22.8369	122.395	-9.09304	-4.34885	112.5	-9.47417	-32.4611	106.162	-15.0554	-58.6116	159.375	4.33334	-51.6545	139.128	-5.94336	-74.3556	113.839	-26.8336	-73.8804	186.348	-3.1773	-57.182	180.223	-0.764812	-87.2665	168.062	-2.77206	-112.999	197.137	-25.1785	-47.269	200.421	-23.8766	-72.788	199.094	-25.1654	-99.4722	202.649	-52.2266	-32.0619	208.057	-51.3337	-58.2869	214.203	-58.1802	-77.6978	197.068	-24.8212	3.66391	199.218	-30.8872	33.0849	177.808	0.384834	15.7882	
99	0.825	131.515	-9.04613	25.338	117.524	-13.8194	-1.87681	104.877	-10.9619	-31.3326	99.8313	-15.2946	-56.1046	145.714	11.8921	-44.9995	128.408	2.11059	-68.4114	111.712	-27.6126	-70.8187	173.701	10.7684	-51.4988	169.502	12.2732	-78.697	157.005	10.8434	-109.271	190.322	-10.1497	-46.5299	194.808	-7.7231	-72.3103	194.384	-6.81401	-98.0797	203.111	-36.4724	-34.5639	209.731	-37.9988	-55.7749	216.406	-34.5286	-76.5493	192.894	-17.1801	2.85978	197.224	-25.0434	33.5579	168.325	1.54396	21.8553	
100	0.833333	127.856	-13.4779	28.3752	110.02	-14.2256	1.05855	97.908	-13.3009	-25.3445	99.847	-14.8747	-52.1813	140.015	16.3367	-41.5345	120.479	5.64509	-67.1469	110.434	-20.7369	-70.75	166.288	17.4332	-46.5087	161.275	22.8362	-75.9198	149.804	22.015	-103.994	184.368	1.08694	-41.493	185.551	9.59305	-67.5719	184.599	13.0767	-97.1454	196.856	-23.1804	-31.9431	202.882	-18.6941	-52.1164	213.791	-17.0164	-74.1533	185.395	-8.68323	7.45905	193.125	-19.6959	33.7321	163.012	4.85732	26.0375	
101	0.841667	122.338	-12.7577	28.1427	110.218	-14.2105	0.400185	93.7982	-8.94445	-26.4795	90.9954	-11.1995	-47.399	128.05	25.0725	-36.0733	113.12	15.1659	-60.8199	105.381	-16.2132	-68.6809	158.361	28.9535	-42.0474	150.829	35.6914	-66.6499	139.454	36.4755	-100.895	174.824	15.081	-37.9935	176.789	23.3526	-62.8116	174.347	29.9974	-89.6362	190.608	-10.6877	-30.2175	198.887	-3.43911	-52.558	208.6	3.9441	-71.0508	182.732	-4.33975	11.8859	186.375	-15.3919	36.9756	158.521	6.08815	29.1579	
102	0.85	123.647	-14.8931	31.1236	105.818	-13.5567	4.72327	90.527	-6.74571	-23.0614	90.8356	-7.74387	-43.8086	125.696	31.0687	-27.5836	110.937	24.7993	-55.5923	102.541	-4.50376	-66.8466	152.581	37.3895	-32.791	144.854	47.9629	-61.6322	134.159	48.9734	-95.2681	171.477	22.8124	-32.2241	169.643	36.111	-55.474	166.706	44.6229	-81.4753	189.139	3.07357	-29.8382	195.69	9.73289	-48.5039	204.008	17.8336	-67.0026	178.33	6.46405	11.739	186.79	-10.8643	39.827	155.268	7.94488	33.9769	
103	0.858333	119.404	-14.2761	36.002	105.484	-11.1735	7.64945	92.9344	-3.73885	-18.4084	89.3058	1.64244	-44.7876	123.002	37.4917	-24.6197	104.382	30.7493	-50.9421	96.054	3.38163	-62.8268	149.523	43.8903	-27.4787	136.721	57.1611	-53.4088	125.192	61.3172	-82.567	166.157	34.448	-27.7765	165.97	45.8346	-48.6272	162.418	55.4913	-74.3489	188.536	12.27	-26.6662	191.753	21.5658	-42.5095	199.122	32.1293	-61.2172	178.192	10.8806	16.1695	183.766	-5.50933	42.2561	148.719	11.5968	40.4237	
104	0.866667	123.113	-13.9291	37.1743	101.557	-6.96435	9.44988	93.0774	1.82942	-16.8515	91.0377	5.68012	-39.1173	117.076	43.1514	-14.3232	100.796	38.8596	-44.8802	97.7669	13.4827	-60.6995	141.533	53.6606	-20.0619	135.956	64.9687	-45.1983	125.222	71.7072	-74.7119	165.44	41.1043	-22.0765	160.746	57.3412	-42.6329	160.622	65.9716	-69.219	185.393	18.7098	-19.9702	190.695	30.411	-38.8626	194.614	45.9012	-59.2167	176.272	13.9443	23.5306	183.91	-4.66354	44.7859	150.998	10.8261	42.5563	
105	0.875	121.382	-10.1195	38.5933	101.886	-4.29664	11.0542	89.8362	6.86006	-15.889	91.0121	13.8188	-38.9784	115.247	48.3186	-11.6804	100.295	45.2315	-38.3651	94.5748	23.1245	-56.3409	140.976	57.8796	-15.1382	133.593	70.6524	-36.4392	120.908	81.0127	-67.0127	160.886	49.6377	-17.6047	157.546	65.3625	-36.9359	155.721	75.7767	-58.3605	183.485	26.3752	-17.2473	186.784	41.5787	-36.7954	191.916	52.9124	-53.3207	174.027	19.4274	23.7853	181.085	0.484875	46.9812	146.235	15.3717	44.6246	
106	0.883333	117.806	-9.80859	40.5364	101.501	-2.5915	12.9837	90.9949	10.7525	-14.0581	90.9063	16.0036	-34.7751	116.726	51.096	-9.03561	102.898	50.6349	-34.5017	95.495	26.9349	-56.112	141.668	62.9958	-11.7991	132.12	79.1066	-33.3336	119.285	91.1295	-63.1364	159.961	54.4301	-11.9973	157.332	69.853	-29.8556	152.123	82.9956	-51.6586	184.11	29.9997	-14.2009	189.127	46.6824	-34.5746	194.233	57.7833	-48.8407	177.507	23.696	26.2239	185.217	1.91316	47.6896	147.039	18.3882	46.8401	
